ffmpeg started on 2025-05-02 at 17:41:55
Report written to "D:\Convert\FFMetrics\reports\ssim_report-6.txt"
Log level: 32
Command line:
ffmpeg -hide_banner -nostdin -i "G:\\\xc0\xed\xe8\xec\xe5\\\xce\xed\xe3\xee\xe8\xed\xe3\xe8\\!_35_\xcb\xe5\xf2\xee_2024\\JamClub\\\xcf\xf1\xe5\xe2\xe4\xee\xe3\xe0\xf0\xe5\xec\\JamClub_Giji_Harem_04_1080p_HEVC.mkv" -i "G:\\\xc0\xed\xe8\xec\xe5\\\xce\xed\xe3\xee\xe8\xed\xe3\xe8\\!_35_\xcb\xe5\xf2\xee_2024\\JamClub\\\xcf\xf1\xe5\xe2\xe4\xee\xe3\xe0\xf0\xe5\xec\\JamClub_Giji_Harem_04_1080p.mp4" -lavfi "[0:v]settb=AVTB,setpts=PTS-STARTPTS,format=pix_fmts=yuv420p10,fps=24000/1001,scale=1920:1080:flags=bicubic[main];[1:v]settb=AVTB,setpts=PTS-STARTPTS,format=pix_fmts=yuv420p,fps=24000/1001,scale=1920:1080:flags=bicubic[ref];[main][ref]ssim=eof_action=endall:stats_file='D\\:/Convert/FFMetrics/logs/ssim_logfile-6.txt'" -f null -
Input #0, matroska,webm, from 'G:\Аниме\Онгоинги\!_35_Лето_2024\JamClub\Псевдогарем\JamClub_Giji_Harem_04_1080p_HEVC.mkv':
  Metadata:
    COMPATIBLE_BRANDS: isomiso2avc1mp41
    MAJOR_BRAND     : isom
    MINOR_VERSION   : 512
    ENCODER         : Lavf61.7.100
  Duration: 00:24:14.23, start: -0.001000, bitrate: 1030 kb/s
  Stream #0:0: Video: hevc (Main 10), yuv420p10le(tv, bt709, progressive), 1920x1080 [SAR 1:1 DAR 16:9], 23.98 fps, 23.98 tbr, 1k tbn (default)
      Metadata:
        HANDLER_NAME    : VideoHandler
        VENDOR_ID       : [0][0][0][0]
        ENCODER         : Lavc61.19.100 libx265
        BPS             : 832336
        DURATION        : 00:24:13.118708333
        NUMBER_OF_FRAMES: 34841
        NUMBER_OF_BYTES : 151185387
        _STATISTICS_WRITING_APP: mkvpropedit v66.0.0 ('Josie') 64-bit
        _STATISTICS_WRITING_DATE_UTC: 2025-05-02 12:23:19
        _STATISTICS_TAGS: BPS DURATION NUMBER_OF_FRAMES NUMBER_OF_BYTES
  Stream #0:1(eng): Audio: aac (LC), 48000 Hz, stereo, fltp (default)
      Metadata:
        HANDLER_NAME    : SoundHandler
        VENDOR_ID       : [0][0][0][0]
        ENCODER         : Lavc61.19.100 aac
        BPS             : 194314
        DURATION        : 00:24:14.189000000
        NUMBER_OF_FRAMES: 68166
        NUMBER_OF_BYTES : 35321179
        _STATISTICS_WRITING_APP: mkvpropedit v66.0.0 ('Josie') 64-bit
        _STATISTICS_WRITING_DATE_UTC: 2025-05-02 12:23:19
        _STATISTICS_TAGS: BPS DURATION NUMBER_OF_FRAMES NUMBER_OF_BYTES
Input #1, mov,mp4,m4a,3gp,3g2,mj2, from 'G:\Аниме\Онгоинги\!_35_Лето_2024\JamClub\Псевдогарем\JamClub_Giji_Harem_04_1080p.mp4':
  Metadata:
    major_brand     : isom
    minor_version   : 512
    compatible_brands: isomiso2avc1mp41
    encoder         : Lavf60.16.100
  Duration: 00:24:14.21, start: 0.000000, bitrate: 5182 kb/s
  Stream #1:0[0x1](und): Video: h264 (High) (avc1 / 0x31637661), yuv420p(progressive), 1920x1080 [SAR 1:1 DAR 16:9], 4988 kb/s, 23.98 fps, 23.98 tbr, 90k tbn (default)
      Metadata:
        handler_name    : VideoHandler
        vendor_id       : [0][0][0][0]
  Stream #1:1[0x2](eng): Audio: aac (LC) (mp4a / 0x6134706D), 48000 Hz, stereo, fltp, 191 kb/s (default)
      Metadata:
        handler_name    : SoundHandler
        vendor_id       : [0][0][0][0]
Stream mapping:
  Stream #0:0 (hevc) -> settb:default
  Stream #1:0 (h264) -> settb:default
  ssim:default -> Stream #0:0 (wrapped_avframe)
  Stream #0:1 -> #0:1 (aac (native) -> pcm_s16le (native))
Output #0, null, to 'pipe:':
  Metadata:
    COMPATIBLE_BRANDS: isomiso2avc1mp41
    MAJOR_BRAND     : isom
    MINOR_VERSION   : 512
    encoder         : Lavf61.7.100
  Stream #0:0: Video: wrapped_avframe, yuv420p10le(tv, bt709, progressive), 1920x1080 [SAR 1:1 DAR 16:9], q=2-31, 200 kb/s, 23.98 fps, 23.98 tbn
      Metadata:
        encoder         : Lavc61.19.100 wrapped_avframe
  Stream #0:1(eng): Audio: pcm_s16le, 48000 Hz, stereo, s16, 1536 kb/s (default)
      Metadata:
        HANDLER_NAME    : SoundHandler
        VENDOR_ID       : [0][0][0][0]
        _STATISTICS_TAGS: BPS DURATION NUMBER_OF_FRAMES NUMBER_OF_BYTES
        BPS             : 194314
        DURATION        : 00:24:14.189000000
        NUMBER_OF_FRAMES: 68166
        NUMBER_OF_BYTES : 35321179
        _STATISTICS_WRITING_APP: mkvpropedit v66.0.0 ('Josie') 64-bit
        _STATISTICS_WRITING_DATE_UTC: 2025-05-02 12:23:19
        encoder         : Lavc61.19.100 pcm_s16le
frame=  113 fps=0.0 q=-0.0 size=N/A time=00:00:04.71 bitrate=N/A speed= 9.2x    frame=  269 fps=259 q=-0.0 size=N/A time=00:00:11.21 bitrate=N/A speed=10.8x    frame=  460 fps=298 q=-0.0 size=N/A time=00:00:19.18 bitrate=N/A speed=12.4x    frame=  660 fps=319 q=-0.0 size=N/A time=00:00:27.52 bitrate=N/A speed=13.3x    frame=  900 fps=350 q=-0.0 size=N/A time=00:00:37.53 bitrate=N/A speed=14.6x    frame= 1127 fps=364 q=-0.0 size=N/A time=00:00:47.00 bitrate=N/A speed=15.2x    frame= 1360 fps=377 q=-0.0 size=N/A time=00:00:56.72 bitrate=N/A speed=15.7x    frame= 1627 fps=394 q=-0.0 size=N/A time=00:01:07.85 bitrate=N/A speed=16.4x    frame= 1844 fps=398 q=-0.0 size=N/A time=00:01:16.91 bitrate=N/A speed=16.6x    frame= 2068 fps=401 q=-0.0 size=N/A time=00:01:26.25 bitrate=N/A speed=16.7x    frame= 2260 fps=399 q=-0.0 size=N/A time=00:01:34.26 bitrate=N/A speed=16.6x    frame= 2435 fps=393 q=-0.0 size=N/A time=00:01:41.55 bitrate=N/A speed=16.4x    frame= 2654 fps=396 q=-0.0 size=N/A time=00:01:50.69 bitrate=N/A speed=16.5x    frame= 2828 fps=392 q=-0.0 size=N/A time=00:01:57.95 bitrate=N/A speed=16.3x    frame= 3034 fps=392 q=-0.0 size=N/A time=00:02:06.54 bitrate=N/A speed=16.3x    frame= 3216 fps=390 q=-0.0 size=N/A time=00:02:14.13 bitrate=N/A speed=16.3x    frame= 3464 fps=395 q=-0.0 size=N/A time=00:02:24.47 bitrate=N/A speed=16.5x    frame= 3717 fps=401 q=-0.0 size=N/A time=00:02:35.02 bitrate=N/A speed=16.7x    frame= 3967 fps=405 q=-0.0 size=N/A time=00:02:45.45 bitrate=N/A speed=16.9x    frame= 4222 fps=409 q=-0.0 size=N/A time=00:02:56.09 bitrate=N/A speed=17.1x    frame= 4479 fps=414 q=-0.0 size=N/A time=00:03:06.81 bitrate=N/A speed=17.2x    frame= 4734 fps=417 q=-0.0 size=N/A time=00:03:17.44 bitrate=N/A speed=17.4x    frame= 4994 fps=421 q=-0.0 size=N/A time=00:03:28.29 bitrate=N/A speed=17.6x    frame= 5259 fps=425 q=-0.0 size=N/A time=00:03:39.34 bitrate=N/A speed=17.7x    frame= 5510 fps=427 q=-0.0 size=N/A time=00:03:49.81 bitrate=N/A speed=17.8x    frame= 5770 fps=431 q=-0.0 size=N/A time=00:04:00.65 bitrate=N/A speed=  18x    frame= 6008 fps=431 q=-0.0 size=N/A time=00:04:10.58 bitrate=N/A speed=  18x    frame= 6212 fps=430 q=-0.0 size=N/A time=00:04:19.09 bitrate=N/A speed=  18x    frame= 6484 fps=433 q=-0.0 size=N/A time=00:04:30.43 bitrate=N/A speed=18.1x    frame= 6752 fps=436 q=-0.0 size=N/A time=00:04:41.61 bitrate=N/A speed=18.2x    frame= 7031 fps=440 q=-0.0 size=N/A time=00:04:53.25 bitrate=N/A speed=18.3x    frame= 7289 fps=442 q=-0.0 size=N/A time=00:05:04.01 bitrate=N/A speed=18.4x    frame= 7568 fps=445 q=-0.0 size=N/A time=00:05:15.64 bitrate=N/A speed=18.5x    frame= 7807 fps=445 q=-0.0 size=N/A time=00:05:25.61 bitrate=N/A speed=18.6x    frame= 8071 fps=447 q=-0.0 size=N/A time=00:05:36.62 bitrate=N/A speed=18.6x    frame= 8337 fps=449 q=-0.0 size=N/A time=00:05:47.72 bitrate=N/A speed=18.7x    frame= 8596 fps=451 q=-0.0 size=N/A time=00:05:58.52 bitrate=N/A speed=18.8x    frame= 8870 fps=453 q=-0.0 size=N/A time=00:06:09.95 bitrate=N/A speed=18.9x    frame= 9069 fps=451 q=-0.0 size=N/A time=00:06:18.25 bitrate=N/A speed=18.8x    frame= 9259 fps=449 q=-0.0 size=N/A time=00:06:26.17 bitrate=N/A speed=18.7x    frame= 9512 fps=450 q=-0.0 size=N/A time=00:06:36.72 bitrate=N/A speed=18.8x    frame= 9781 fps=452 q=-0.0 size=N/A time=00:06:47.94 bitrate=N/A speed=18.8x    frame=10044 fps=453 q=-0.0 size=N/A time=00:06:58.91 bitrate=N/A speed=18.9x    frame=10280 fps=453 q=-0.0 size=N/A time=00:07:08.76 bitrate=N/A speed=18.9x    frame=10552 fps=455 q=-0.0 size=N/A time=00:07:20.10 bitrate=N/A speed=  19x    frame=10827 fps=457 q=-0.0 size=N/A time=00:07:31.57 bitrate=N/A speed=  19x    frame=11092 fps=458 q=-0.0 size=N/A time=00:07:42.62 bitrate=N/A speed=19.1x    frame=11355 fps=459 q=-0.0 size=N/A time=00:07:53.59 bitrate=N/A speed=19.1x    frame=11602 fps=459 q=-0.0 size=N/A time=00:08:03.90 bitrate=N/A speed=19.1x    frame=11863 fps=460 q=-0.0 size=N/A time=00:08:14.78 bitrate=N/A speed=19.2x    frame=12147 fps=462 q=-0.0 size=N/A time=00:08:26.63 bitrate=N/A speed=19.3x    frame=12389 fps=462 q=-0.0 size=N/A time=00:08:36.72 bitrate=N/A speed=19.3x    frame=12644 fps=463 q=-0.0 size=N/A time=00:08:47.36 bitrate=N/A speed=19.3x    frame=12890 fps=463 q=-0.0 size=N/A time=00:08:57.62 bitrate=N/A speed=19.3x    frame=13149 fps=464 q=-0.0 size=N/A time=00:09:08.42 bitrate=N/A speed=19.3x    frame=13432 fps=465 q=-0.0 size=N/A time=00:09:20.22 bitrate=N/A speed=19.4x    frame=13692 fps=466 q=-0.0 size=N/A time=00:09:31.07 bitrate=N/A speed=19.4x    frame=13976 fps=467 q=-0.0 size=N/A time=00:09:42.91 bitrate=N/A speed=19.5x    frame=14242 fps=468 q=-0.0 size=N/A time=00:09:54.01 bitrate=N/A speed=19.5x    frame=14510 fps=469 q=-0.0 size=N/A time=00:10:05.18 bitrate=N/A speed=19.6x    frame=14760 fps=469 q=-0.0 size=N/A time=00:10:15.61 bitrate=N/A speed=19.6x    frame=15016 fps=470 q=-0.0 size=N/A time=00:10:26.29 bitrate=N/A speed=19.6x    frame=15250 fps=470 q=-0.0 size=N/A time=00:10:36.05 bitrate=N/A speed=19.6x    frame=15509 fps=470 q=-0.0 size=N/A time=00:10:46.85 bitrate=N/A speed=19.6x    frame=15753 fps=470 q=-0.0 size=N/A time=00:10:57.03 bitrate=N/A speed=19.6x    frame=15988 fps=470 q=-0.0 size=N/A time=00:11:06.83 bitrate=N/A speed=19.6x    frame=16252 fps=470 q=-0.0 size=N/A time=00:11:17.84 bitrate=N/A speed=19.6x    frame=16488 fps=470 q=-0.0 size=N/A time=00:11:27.68 bitrate=N/A speed=19.6x    frame=16738 fps=470 q=-0.0 size=N/A time=00:11:38.11 bitrate=N/A speed=19.6x    frame=16954 fps=470 q=-0.0 size=N/A time=00:11:47.12 bitrate=N/A speed=19.6x    frame=17214 fps=470 q=-0.0 size=N/A time=00:11:57.96 bitrate=N/A speed=19.6x    frame=17451 fps=470 q=-0.0 size=N/A time=00:12:07.85 bitrate=N/A speed=19.6x    frame=17709 fps=470 q=-0.0 size=N/A time=00:12:18.61 bitrate=N/A speed=19.6x    frame=17910 fps=469 q=-0.0 size=N/A time=00:12:26.99 bitrate=N/A speed=19.6x    frame=18189 fps=470 q=-0.0 size=N/A time=00:12:38.63 bitrate=N/A speed=19.6x    frame=18454 fps=471 q=-0.0 size=N/A time=00:12:49.68 bitrate=N/A speed=19.6x    frame=18729 fps=472 q=-0.0 size=N/A time=00:13:01.15 bitrate=N/A speed=19.7x    frame=18976 fps=472 q=-0.0 size=N/A time=00:13:11.45 bitrate=N/A speed=19.7x    frame=19245 fps=472 q=-0.0 size=N/A time=00:13:22.67 bitrate=N/A speed=19.7x    frame=19513 fps=473 q=-0.0 size=N/A time=00:13:33.85 bitrate=N/A speed=19.7x    frame=19757 fps=473 q=-0.0 size=N/A time=00:13:44.03 bitrate=N/A speed=19.7x    frame=20026 fps=474 q=-0.0 size=N/A time=00:13:55.25 bitrate=N/A speed=19.8x    frame=20283 fps=474 q=-0.0 size=N/A time=00:14:05.97 bitrate=N/A speed=19.8x    frame=20475 fps=473 q=-0.0 size=N/A time=00:14:13.97 bitrate=N/A speed=19.7x    frame=20724 fps=473 q=-0.0 size=N/A time=00:14:24.36 bitrate=N/A speed=19.7x    frame=20994 fps=473 q=-0.0 size=N/A time=00:14:35.62 bitrate=N/A speed=19.7x    frame=21260 fps=474 q=-0.0 size=N/A time=00:14:46.71 bitrate=N/A speed=19.8x    frame=21507 fps=474 q=-0.0 size=N/A time=00:14:57.02 bitrate=N/A speed=19.8x    frame=21755 fps=474 q=-0.0 size=N/A time=00:15:07.36 bitrate=N/A speed=19.8x    frame=21962 fps=473 q=-0.0 size=N/A time=00:15:15.99 bitrate=N/A speed=19.7x    frame=22213 fps=473 q=-0.0 size=N/A time=00:15:26.46 bitrate=N/A speed=19.7x    frame=22456 fps=473 q=-0.0 size=N/A time=00:15:36.60 bitrate=N/A speed=19.7x    frame=22695 fps=473 q=-0.0 size=N/A time=00:15:46.57 bitrate=N/A speed=19.7x    frame=22949 fps=473 q=-0.0 size=N/A time=00:15:57.16 bitrate=N/A speed=19.7x    frame=23179 fps=473 q=-0.0 size=N/A time=00:16:06.75 bitrate=N/A speed=19.7x    frame=23437 fps=473 q=-0.0 size=N/A time=00:16:17.51 bitrate=N/A speed=19.7x    frame=23705 fps=474 q=-0.0 size=N/A time=00:16:28.69 bitrate=N/A speed=19.8x    frame=23934 fps=473 q=-0.0 size=N/A time=00:16:38.24 bitrate=N/A speed=19.7x    frame=24201 fps=474 q=-0.0 size=N/A time=00:16:49.38 bitrate=N/A speed=19.8x    frame=24461 fps=474 q=-0.0 size=N/A time=00:17:00.22 bitrate=N/A speed=19.8x    frame=24716 fps=474 q=-0.0 size=N/A time=00:17:10.86 bitrate=N/A speed=19.8x    frame=24984 fps=475 q=-0.0 size=N/A time=00:17:22.04 bitrate=N/A speed=19.8x    frame=25187 fps=474 q=-0.0 size=N/A time=00:17:30.50 bitrate=N/A speed=19.8x    frame=25403 fps=474 q=-0.0 size=N/A time=00:17:39.51 bitrate=N/A speed=19.7x    frame=25621 fps=473 q=-0.0 size=N/A time=00:17:48.60 bitrate=N/A speed=19.7x    frame=25863 fps=473 q=-0.0 size=N/A time=00:17:58.70 bitrate=N/A speed=19.7x    frame=26102 fps=473 q=-0.0 size=N/A time=00:18:08.67 bitrate=N/A speed=19.7x    frame=26332 fps=473 q=-0.0 size=N/A time=00:18:18.26 bitrate=N/A speed=19.7x    frame=26565 fps=473 q=-0.0 size=N/A time=00:18:27.98 bitrate=N/A speed=19.7x    frame=26782 fps=472 q=-0.0 size=N/A time=00:18:37.03 bitrate=N/A speed=19.7x    frame=26994 fps=472 q=-0.0 size=N/A time=00:18:45.87 bitrate=N/A speed=19.7x    frame=27263 fps=472 q=-0.0 size=N/A time=00:18:57.09 bitrate=N/A speed=19.7x    frame=27501 fps=472 q=-0.0 size=N/A time=00:19:07.02 bitrate=N/A speed=19.7x    frame=27769 fps=472 q=-0.0 size=N/A time=00:19:18.19 bitrate=N/A speed=19.7x    frame=28035 fps=473 q=-0.0 size=N/A time=00:19:29.29 bitrate=N/A speed=19.7x    frame=28288 fps=473 q=-0.0 size=N/A time=00:19:39.84 bitrate=N/A speed=19.7x    frame=28518 fps=473 q=-0.0 size=N/A time=00:19:49.43 bitrate=N/A speed=19.7x    frame=28771 fps=473 q=-0.0 size=N/A time=00:19:59.99 bitrate=N/A speed=19.7x    frame=28969 fps=472 q=-0.0 size=N/A time=00:20:08.24 bitrate=N/A speed=19.7x    frame=29251 fps=473 q=-0.0 size=N/A time=00:20:20.01 bitrate=N/A speed=19.7x    frame=29516 fps=473 q=-0.0 size=N/A time=00:20:31.06 bitrate=N/A speed=19.7x    frame=29784 fps=473 q=-0.0 size=N/A time=00:20:42.24 bitrate=N/A speed=19.7x    frame=30056 fps=474 q=-0.0 size=N/A time=00:20:53.58 bitrate=N/A speed=19.8x    frame=30324 fps=474 q=-0.0 size=N/A time=00:21:04.76 bitrate=N/A speed=19.8x    frame=30573 fps=474 q=-0.0 size=N/A time=00:21:15.14 bitrate=N/A speed=19.8x    frame=30814 fps=474 q=-0.0 size=N/A time=00:21:25.20 bitrate=N/A speed=19.8x    frame=31068 fps=474 q=-0.0 size=N/A time=00:21:35.79 bitrate=N/A speed=19.8x    frame=31341 fps=475 q=-0.0 size=N/A time=00:21:47.18 bitrate=N/A speed=19.8x    frame=31585 fps=475 q=-0.0 size=N/A time=00:21:57.35 bitrate=N/A speed=19.8x    frame=31862 fps=475 q=-0.0 size=N/A time=00:22:08.91 bitrate=N/A speed=19.8x    frame=32113 fps=475 q=-0.0 size=N/A time=00:22:19.37 bitrate=N/A speed=19.8x    frame=32358 fps=475 q=-0.0 size=N/A time=00:22:29.59 bitrate=N/A speed=19.8x    frame=32581 fps=475 q=-0.0 size=N/A time=00:22:38.89 bitrate=N/A speed=19.8x    frame=32765 fps=474 q=-0.0 size=N/A time=00:22:46.57 bitrate=N/A speed=19.8x    frame=32960 fps=473 q=-0.0 size=N/A time=00:22:54.74 bitrate=N/A speed=19.7x    frame=33177 fps=473 q=-0.0 size=N/A time=00:23:03.75 bitrate=N/A speed=19.7x    frame=33356 fps=472 q=-0.0 size=N/A time=00:23:11.22 bitrate=N/A speed=19.7x    frame=33567 fps=472 q=-0.0 size=N/A time=00:23:20.02 bitrate=N/A speed=19.7x    frame=33776 fps=471 q=-0.0 size=N/A time=00:23:28.74 bitrate=N/A speed=19.7x    frame=33998 fps=471 q=-0.0 size=N/A time=00:23:37.99 bitrate=N/A speed=19.6x    frame=34175 fps=470 q=-0.0 size=N/A time=00:23:45.38 bitrate=N/A speed=19.6x    frame=34441 fps=470 q=-0.0 size=N/A time=00:23:56.47 bitrate=N/A speed=19.6x    frame=34707 fps=471 q=-0.0 size=N/A time=00:24:07.57 bitrate=N/A speed=19.6x    [Parsed_ssim_10 @ 000002787a9fa040] SSIM Y:0.994323 (22.458758) U:0.994903 (22.926496) V:0.995223 (23.208509) All:0.994570 (22.651651)
[out#0/null @ 000002787a503fc0] video:14970KiB audio:272664KiB subtitle:0KiB other streams:0KiB global headers:0KiB muxing overhead: unknown
frame=34840 fps=471 q=-0.0 Lsize=N/A time=00:24:13.11 bitrate=N/A speed=19.6x    
